<?xml version="1.0" encoding="UTF-8"?>
<svg xmlns="http://www.w3.org/2000/svg" xmlns:xlink="http://www.w3.org/1999/xlink" width="125pt" height="125pt" viewBox="0 0 125 125" version="1.1">
<g id="surface1">
<path style=" stroke:none;fill-rule:evenodd;fill:rgb(1.568627%,1.568627%,92.54902%);fill-opacity:1;" d="M 75.050781 62.59375 L 75.050781 125.1875 L 125 125.1875 L 125 112.042969 L 89.660156 112.042969 L 89.660156 0 L 75.050781 0 L 75.050781 62.59375 "/>
<path style=" stroke:none;fill-rule:evenodd;fill:rgb(1.568627%,1.568627%,1.568627%);fill-opacity:1;" d="M 0 62.59375 L 0 125.199219 L 17.941406 125.164062 C 32.15625 125.132812 35.890625 125.09375 35.933594 124.96875 C 35.964844 124.871094 36.21875 124.8125 36.597656 124.8125 C 36.9375 124.8125 37.210938 124.757812 37.210938 124.6875 C 37.210938 124.617188 37.492188 124.5625 37.835938 124.5625 C 38.179688 124.5625 38.460938 124.507812 38.460938 124.4375 C 38.460938 124.367188 38.6875 124.3125 38.960938 124.3125 C 39.234375 124.3125 39.460938 124.253906 39.460938 124.1875 C 39.460938 124.117188 39.628906 124.0625 39.835938 124.0625 C 40.042969 124.0625 40.210938 124.003906 40.210938 123.9375 C 40.210938 123.867188 40.40625 123.8125 40.648438 123.8125 C 40.886719 123.8125 41.085938 123.753906 41.085938 123.6875 C 41.085938 123.617188 41.195312 123.5625 41.332031 123.5625 C 41.472656 123.5625 41.582031 123.503906 41.582031 123.433594 C 41.582031 123.367188 41.75 123.308594 41.957031 123.308594 C 42.164062 123.308594 42.332031 123.253906 42.332031 123.183594 C 42.332031 123.117188 42.445312 123.058594 42.582031 123.058594 C 42.71875 123.058594 42.832031 123.003906 42.832031 122.933594 C 42.832031 122.867188 43 122.808594 43.207031 122.808594 C 43.414062 122.808594 43.582031 122.753906 43.582031 122.683594 C 43.582031 122.617188 43.695312 122.558594 43.832031 122.558594 C 43.96875 122.558594 44.082031 122.503906 44.082031 122.433594 C 44.082031 122.363281 44.167969 122.308594 44.273438 122.308594 C 44.46875 122.308594 45.210938 121.964844 45.328125 121.820312 C 45.363281 121.78125 45.5625 121.660156 45.765625 121.558594 C 45.972656 121.457031 46.230469 121.273438 46.34375 121.152344 C 46.453125 121.03125 46.625 120.933594 46.722656 120.933594 C 46.820312 120.933594 46.980469 120.820312 47.078125 120.679688 C 47.175781 120.542969 47.335938 120.429688 47.425781 120.429688 C 47.519531 120.429688 47.8125 120.207031 48.078125 119.929688 C 48.339844 119.65625 48.617188 119.429688 48.695312 119.429688 C 48.863281 119.429688 50.949219 117.351562 50.949219 117.179688 C 50.949219 117.113281 51.144531 116.851562 51.386719 116.605469 C 51.625 116.355469 51.824219 116.097656 51.824219 116.027344 C 51.824219 115.957031 51.992188 115.742188 52.199219 115.546875 C 52.402344 115.355469 52.574219 115.121094 52.574219 115.023438 C 52.574219 114.929688 52.683594 114.773438 52.820312 114.671875 C 52.960938 114.574219 53.070312 114.390625 53.070312 114.269531 C 53.070312 114.148438 53.128906 114.046875 53.195312 114.046875 C 53.265625 114.046875 53.320312 113.945312 53.320312 113.824219 C 53.320312 113.699219 53.433594 113.519531 53.570312 113.421875 C 53.707031 113.320312 53.820312 113.140625 53.820312 113.015625 C 53.820312 112.894531 53.878906 112.792969 53.945312 112.792969 C 54.015625 112.792969 54.070312 112.683594 54.070312 112.542969 C 54.070312 112.40625 54.128906 112.292969 54.195312 112.292969 C 54.265625 112.292969 54.320312 112.179688 54.320312 112.042969 C 54.320312 111.90625 54.375 111.792969 54.445312 111.792969 C 54.515625 111.792969 54.570312 111.679688 54.570312 111.542969 C 54.570312 111.40625 54.613281 111.292969 54.664062 111.292969 C 54.789062 111.289062 55.070312 110.671875 55.070312 110.390625 C 55.070312 110.265625 55.125 110.164062 55.195312 110.164062 C 55.261719 110.164062 55.320312 110.054688 55.320312 109.914062 C 55.320312 109.777344 55.375 109.664062 55.445312 109.664062 C 55.511719 109.664062 55.570312 109.496094 55.570312 109.289062 C 55.570312 109.082031 55.625 108.914062 55.695312 108.914062 C 55.761719 108.914062 55.820312 108.804688 55.820312 108.671875 C 55.820312 108.535156 55.875 108.394531 55.945312 108.351562 C 56.011719 108.308594 56.070312 108.078125 56.070312 107.84375 C 56.070312 107.605469 56.125 107.410156 56.195312 107.410156 C 56.261719 107.410156 56.320312 107.242188 56.320312 107.035156 C 56.320312 106.828125 56.375 106.660156 56.445312 106.660156 C 56.511719 106.660156 56.570312 106.433594 56.570312 106.160156 C 56.570312 105.882812 56.625 105.660156 56.695312 105.660156 C 56.761719 105.660156 56.816406 105.464844 56.816406 105.226562 C 56.816406 104.992188 56.867188 104.765625 56.929688 104.726562 C 56.992188 104.6875 57.085938 104.121094 57.132812 103.46875 C 57.183594 102.8125 57.273438 102.277344 57.332031 102.277344 C 57.394531 102.277344 57.441406 101.828125 57.441406 101.277344 C 57.441406 100.691406 57.496094 100.277344 57.566406 100.277344 C 57.644531 100.277344 57.691406 99.710938 57.691406 98.835938 C 57.691406 97.960938 57.742188 97.394531 57.816406 97.394531 C 57.898438 97.394531 57.941406 85.710938 57.941406 62.59375 C 57.941406 39.476562 57.898438 27.792969 57.816406 27.792969 C 57.742188 27.792969 57.691406 27.226562 57.691406 26.351562 C 57.691406 25.476562 57.644531 24.914062 57.566406 24.914062 C 57.496094 24.914062 57.441406 24.496094 57.441406 23.910156 C 57.441406 23.359375 57.394531 22.910156 57.332031 22.910156 C 57.273438 22.910156 57.183594 22.375 57.132812 21.71875 C 57.085938 21.066406 56.992188 20.5 56.929688 20.460938 C 56.867188 20.421875 56.816406 20.195312 56.816406 19.960938 C 56.816406 19.722656 56.761719 19.53125 56.695312 19.53125 C 56.625 19.53125 56.570312 19.304688 56.570312 19.027344 C 56.570312 18.753906 56.511719 18.527344 56.445312 18.527344 C 56.375 18.527344 56.320312 18.359375 56.320312 18.152344 C 56.320312 17.945312 56.261719 17.777344 56.195312 17.777344 C 56.125 17.777344 56.070312 17.582031 56.070312 17.347656 C 56.070312 17.109375 56.011719 16.878906 55.945312 16.835938 C 55.875 16.796875 55.820312 16.652344 55.820312 16.515625 C 55.820312 16.382812 55.761719 16.273438 55.695312 16.273438 C 55.625 16.273438 55.570312 16.105469 55.570312 15.898438 C 55.570312 15.691406 55.511719 15.523438 55.445312 15.523438 C 55.375 15.523438 55.320312 15.421875 55.320312 15.296875 C 55.320312 15.019531 55.039062 14.398438 54.914062 14.398438 C 54.863281 14.398438 54.820312 14.285156 54.820312 14.144531 C 54.820312 14.007812 54.765625 13.894531 54.695312 13.894531 C 54.625 13.894531 54.570312 13.785156 54.570312 13.644531 C 54.570312 13.507812 54.515625 13.394531 54.445312 13.394531 C 54.375 13.394531 54.320312 13.28125 54.320312 13.144531 C 54.320312 13.007812 54.265625 12.894531 54.195312 12.894531 C 54.128906 12.894531 54.070312 12.78125 54.070312 12.644531 C 54.070312 12.507812 54.015625 12.394531 53.945312 12.394531 C 53.878906 12.394531 53.820312 12.28125 53.820312 12.144531 C 53.820312 12.003906 53.765625 11.894531 53.695312 11.894531 C 53.628906 11.894531 53.570312 11.792969 53.570312 11.671875 C 53.570312 11.546875 53.460938 11.367188 53.320312 11.265625 C 53.183594 11.167969 53.070312 11 53.070312 10.890625 C 53.070312 10.785156 52.960938 10.613281 52.820312 10.515625 C 52.683594 10.417969 52.574219 10.246094 52.574219 10.140625 C 52.574219 10.03125 52.460938 9.863281 52.324219 9.765625 C 52.183594 9.664062 52.074219 9.519531 52.074219 9.441406 C 52.074219 9.363281 51.875 9.089844 51.636719 8.835938 C 51.394531 8.578125 51.199219 8.324219 51.199219 8.273438 C 51.199219 8.113281 48.609375 5.507812 48.449219 5.507812 C 48.367188 5.507812 48.144531 5.339844 47.953125 5.132812 C 47.757812 4.925781 47.535156 4.757812 47.453125 4.757812 C 47.371094 4.757812 47.144531 4.589844 46.953125 4.382812 C 46.761719 4.175781 46.511719 4.007812 46.402344 4.007812 C 46.292969 4.007812 46.203125 3.964844 46.203125 3.910156 C 46.203125 3.859375 46.097656 3.757812 45.96875 3.691406 C 45.84375 3.625 45.449219 3.414062 45.101562 3.222656 C 44.75 3.035156 44.378906 2.878906 44.273438 2.878906 C 44.167969 2.878906 44.082031 2.824219 44.082031 2.753906 C 44.082031 2.683594 43.96875 2.628906 43.832031 2.628906 C 43.695312 2.628906 43.582031 2.574219 43.582031 2.503906 C 43.582031 2.433594 43.46875 2.378906 43.332031 2.378906 C 43.195312 2.378906 43.082031 2.324219 43.082031 2.253906 C 43.082031 2.183594 42.914062 2.128906 42.707031 2.128906 C 42.5 2.128906 42.332031 2.070312 42.332031 2.003906 C 42.332031 1.933594 42.21875 1.878906 42.082031 1.878906 C 41.945312 1.878906 41.832031 1.820312 41.832031 1.753906 C 41.832031 1.683594 41.664062 1.628906 41.457031 1.628906 C 41.253906 1.628906 41.085938 1.570312 41.085938 1.503906 C 41.085938 1.433594 40.945312 1.378906 40.777344 1.378906 C 40.613281 1.378906 40.441406 1.320312 40.398438 1.25 C 40.355469 1.183594 40.125 1.125 39.890625 1.125 C 39.652344 1.125 39.460938 1.070312 39.460938 1 C 39.460938 0.933594 39.292969 0.875 39.085938 0.875 C 38.878906 0.875 38.710938 0.820312 38.710938 0.75 C 38.710938 0.683594 38.429688 0.625 38.085938 0.625 C 37.742188 0.625 37.460938 0.570312 37.460938 0.5 C 37.460938 0.429688 37.132812 0.375 36.722656 0.375 C 36.242188 0.375 35.964844 0.320312 35.933594 0.21875 C 35.890625 0.09375 32.15625 0.0546875 17.941406 0.0273438 L 0 -0.0117188 L 0 62.59375 M 30.90625 13.269531 C 30.949219 13.339844 31.34375 13.394531 31.789062 13.394531 C 32.230469 13.394531 32.59375 13.445312 32.59375 13.507812 C 32.59375 13.570312 32.832031 13.652344 33.125 13.691406 C 34.136719 13.824219 34.589844 13.925781 34.589844 14.019531 C 34.589844 14.070312 34.828125 14.144531 35.117188 14.183594 C 35.410156 14.222656 35.667969 14.316406 35.691406 14.386719 C 35.714844 14.460938 35.84375 14.523438 35.972656 14.523438 C 36.105469 14.523438 36.214844 14.578125 36.214844 14.648438 C 36.214844 14.714844 36.328125 14.773438 36.464844 14.773438 C 36.601562 14.773438 36.714844 14.828125 36.714844 14.898438 C 36.714844 14.964844 36.8125 15.023438 36.9375 15.023438 C 37.058594 15.023438 37.238281 15.136719 37.335938 15.273438 C 37.4375 15.410156 37.589844 15.523438 37.679688 15.523438 C 37.90625 15.523438 40.460938 18.109375 40.460938 18.339844 C 40.460938 18.441406 40.507812 18.527344 40.570312 18.527344 C 40.632812 18.527344 40.785156 18.730469 40.914062 18.976562 C 41.042969 19.226562 41.203125 19.535156 41.269531 19.667969 C 41.335938 19.796875 41.4375 19.90625 41.488281 19.90625 C 41.539062 19.90625 41.582031 20.015625 41.582031 20.15625 C 41.582031 20.292969 41.640625 20.40625 41.707031 20.40625 C 41.777344 20.40625 41.832031 20.574219 41.832031 20.78125 C 41.832031 20.988281 41.890625 21.15625 41.957031 21.15625 C 42.027344 21.15625 42.082031 21.269531 42.082031 21.40625 C 42.082031 21.542969 42.140625 21.65625 42.207031 21.65625 C 42.277344 21.65625 42.332031 21.828125 42.332031 22.035156 C 42.332031 22.238281 42.390625 22.410156 42.457031 22.410156 C 42.527344 22.410156 42.582031 22.632812 42.582031 22.910156 C 42.582031 23.183594 42.640625 23.410156 42.707031 23.410156 C 42.777344 23.410156 42.832031 23.636719 42.832031 23.910156 C 42.832031 24.1875 42.886719 24.410156 42.957031 24.410156 C 43.027344 24.410156 43.082031 24.722656 43.082031 25.101562 C 43.082031 25.480469 43.136719 25.789062 43.207031 25.789062 C 43.28125 25.789062 43.332031 26.246094 43.332031 26.914062 C 43.332031 27.582031 43.382812 28.042969 43.457031 28.042969 C 43.539062 28.042969 43.582031 39.644531 43.582031 62.59375 C 43.582031 85.546875 43.539062 97.144531 43.457031 97.144531 C 43.382812 97.144531 43.332031 97.605469 43.332031 98.273438 C 43.332031 98.941406 43.28125 99.398438 43.207031 99.398438 C 43.136719 99.398438 43.082031 99.710938 43.082031 100.089844 C 43.082031 100.464844 43.027344 100.777344 42.957031 100.777344 C 42.886719 100.777344 42.832031 101 42.832031 101.277344 C 42.832031 101.550781 42.777344 101.777344 42.707031 101.777344 C 42.640625 101.777344 42.582031 102.003906 42.582031 102.277344 C 42.582031 102.554688 42.527344 102.78125 42.457031 102.78125 C 42.390625 102.78125 42.332031 102.949219 42.332031 103.15625 C 42.332031 103.363281 42.277344 103.53125 42.207031 103.53125 C 42.140625 103.53125 42.082031 103.644531 42.082031 103.78125 C 42.082031 103.917969 42.027344 104.03125 41.957031 104.03125 C 41.890625 104.03125 41.832031 104.199219 41.832031 104.40625 C 41.832031 104.613281 41.777344 104.78125 41.707031 104.78125 C 41.640625 104.78125 41.582031 104.894531 41.582031 105.03125 C 41.582031 105.171875 41.539062 105.285156 41.488281 105.285156 C 41.4375 105.285156 41.335938 105.390625 41.269531 105.519531 C 41.203125 105.652344 41.042969 105.960938 40.914062 106.210938 C 40.785156 106.457031 40.632812 106.660156 40.570312 106.660156 C 40.507812 106.660156 40.460938 106.75 40.460938 106.859375 C 40.460938 106.964844 40.234375 107.273438 39.960938 107.535156 C 39.683594 107.800781 39.460938 108.082031 39.460938 108.160156 C 39.460938 108.347656 39.144531 108.664062 38.960938 108.664062 C 38.882812 108.664062 38.601562 108.886719 38.335938 109.164062 C 38.074219 109.441406 37.78125 109.664062 37.6875 109.664062 C 37.59375 109.664062 37.4375 109.777344 37.335938 109.914062 C 37.238281 110.054688 37.058594 110.164062 36.9375 110.164062 C 36.8125 110.164062 36.714844 110.222656 36.714844 110.289062 C 36.714844 110.359375 36.601562 110.417969 36.464844 110.417969 C 36.328125 110.417969 36.214844 110.472656 36.214844 110.542969 C 36.214844 110.609375 36.101562 110.667969 35.964844 110.667969 C 35.828125 110.667969 35.714844 110.71875 35.714844 110.785156 C 35.714844 110.851562 35.503906 110.941406 35.246094 110.988281 C 34.988281 111.035156 34.722656 111.117188 34.652344 111.167969 C 34.515625 111.269531 33.925781 111.398438 33.125 111.5 C 32.832031 111.539062 32.59375 111.617188 32.59375 111.679688 C 32.59375 111.742188 32.175781 111.792969 31.664062 111.792969 C 31.152344 111.792969 30.699219 111.847656 30.65625 111.917969 C 30.605469 112 27.722656 112.042969 22.40625 112.042969 L 14.234375 112.042969 L 14.234375 13.144531 L 22.53125 13.144531 C 27.929688 13.144531 30.855469 13.1875 30.90625 13.269531 "/>
</g>
</svg>
